<svg xmlns="http://www.w3.org/2000/svg" xmlns:xlink="http://www.w3.org/1999/xlink" version="1.1" x="0px" y="0px" viewBox="0 0 96 120" enable-background="new 0 0 96 96" xml:space="preserve">
<path fill="#8794b2" d="M51.828,0.216C30.996,0.216,0,14.96,0,55.584c0,25.889,26.12,40.204,44.172,40.204c13.141,0,19.264-4.265,19.92-4.752  c1.752-1.3,2.108-3.752,0.836-5.528c-1.275-1.771-3.768-2.176-5.56-0.928c-0.048,0.031-4.752,3.216-15.204,3.216  c-14.784,0-36.172-11.468-36.172-32.204C7.992,20.84,34.2,8.224,51.82,8.224c20.371,0,36.172,19.316,36.172,35.928  c0,24.76-9.948,24.76-13.217,24.76c-4.428,0-9.147-8.768-9.252-15.076c2.576-15.308,3.748-22.096,3.752-22.108  c0.293-1.68-0.516-3.36-2.008-4.184c-5.207-2.876-10.468-4.332-15.64-4.332c-16.032,0-28.592,14.22-28.592,32.372  c0,10.484,7.168,21.328,19.164,21.328c4.332,0,13.124-1.236,18.784-10.168c2.988,5.64,7.764,10.168,13.8,10.168  c9.68,0,21.216-5.68,21.216-32.76C96,23.412,77.107,0.216,51.828,0.216z M42.2,68.912c-7.252,0-11.164-6.864-11.164-13.328  c0-13.664,9.044-24.368,20.588-24.368c3.008,0,6.108,0.7,9.26,2.088c-0.584,3.38-1.668,9.776-3.323,19.648  C55.788,63.544,50.62,68.912,42.2,68.912z"/></svg>