<svg version="1.0" xmlns="http://www.w3.org/2000/svg" width="325.000000pt" height="223.000000pt" viewBox="0 0 325.000000 223.000000" preserveAspectRatio="xMidYMid meet">
<g transform="translate(0.000000,223.000000) scale(0.100000,-0.100000)" fill="#000000" stroke="none">
    <path d="M780 1874 c-404 -190 -744 -354 -755 -365 -25 -25 -25 -83 0 -109 11-11 106 -60 210 -109 l190 -89 5 -320 c4 -224 9 -323 17 -333 6 -8 255 -135 552 -284 l541 -269 541 269 c298 149 547 279 555 290 11 16 14 80 14 331 l0 312 107 52 c59 28 117 53 130 56 l23 6 0 -295 0 -295 -85 -129 c-66 -100 -85 -136 -85 -164 0 -47 33 -79 81 -79 41 0 63 21 129 118 l42 64 53 -79 c71 -106 86 -116 147 -100 27 7 58 50 58 81 0 8 -38 72 -85 143 l-85 128 0 387 0 387 -22 25 c-28 31 -1481 716 -1518 716 -14 0 -356 -156 -760 -346z m1255 -65 c270 -127 508 -239 530 -249 39 -18 32 -19 -447 -19 l-488 -1 0 43 c0 55 -28 109 -62 121 -41 14 -80 -3 -101 -44 -16 -31 -17 -58 -15 -223 l3 -189 28 -24 c35 -30 78 -31 112 -1 22 18 27 34 32 85 l6 62 485 0 c267 0 483 -2 481 -3 -2-2 -241 -115 -531 -252 l-527 -247 -448 211 c-247 115 -524 245 -617 288 -93 43 -169 82 -170 86 -1 7 1219 586 1234 587 3 0 226 -104 495 -231z m-1002 -895 l417 -197 0 -101 c0 -76 4 -110 18 -136 33 -66 111 -66 144 0 14 26 18 60 18 136 l0 101 418 196 c230 109 421 197 425 197 4 0 7 -102 7 -228 l0 -227 -470 -235 -470 -235 -470 235 -470 235 0 227 c0 126 3 228 8 228 4 0 195 -88 425 -196z"/>
    </g>
</svg>
