<svg xmlns="http://www.w3.org/2000/svg" width="134" height="134" viewBox="0 0 134 134" fill="none"><path d="M58.8379 5.29367C63.8029 2.07354 70.1971 2.07354 75.1621 5.29367L78.2138 7.27289C80.8664 8.99326 83.9947 9.83149 87.1521 9.6679L90.7846 9.47969C96.6945 9.17348 102.232 12.3706 104.922 17.6418L106.575 20.8817C108.012 23.6979 110.302 25.988 113.118 27.425L116.358 29.0782C121.629 31.768 124.827 37.3055 124.52 43.2154L124.332 46.8479C124.169 50.0053 125.007 53.1336 126.727 55.7862L128.706 58.8379C131.926 63.8029 131.926 70.1971 128.706 75.1621L126.727 78.2138C125.007 80.8664 124.169 83.9947 124.332 87.1521L124.52 90.7846C124.827 96.6945 121.629 102.232 116.358 104.922L113.118 106.575C110.302 108.012 108.012 110.302 106.575 113.118L104.922 116.358C102.232 121.629 96.6945 124.827 90.7846 124.52L87.1521 124.332C83.9947 124.169 80.8664 125.007 78.2138 126.727L75.1621 128.706C70.1971 131.926 63.8029 131.926 58.8379 128.706L55.7862 126.727C53.1336 125.007 50.0053 124.169 46.8479 124.332L43.2154 124.52C37.3055 124.827 31.768 121.629 29.0782 116.358L27.425 113.118C25.988 110.302 23.6979 108.012 20.8817 106.575L17.6418 104.922C12.3706 102.232 9.17348 96.6945 9.47969 90.7846L9.6679 87.1521C9.83149 83.9947 8.99326 80.8664 7.27289 78.2138L5.29367 75.1621C2.07354 70.1971 2.07354 63.8029 5.29367 58.8379L7.27289 55.7862C8.99326 53.1336 9.83149 50.0053 9.6679 46.8479L9.47969 43.2154C9.17348 37.3056 12.3706 31.768 17.6418 29.0782L20.8817 27.425C23.6979 25.988 25.988 23.6979 27.425 20.8817L29.0782 17.6418C31.768 12.3706 37.3055 9.17348 43.2154 9.47969L46.8479 9.6679C50.0053 9.83149 53.1336 8.99326 55.7862 7.27289L58.8379 5.29367Z" fill="#FFFFFF"></path></svg>