<svg version="1.1" id="Layer_1" xmlns="http://www.w3.org/2000/svg" xmlns:xlink="http://www.w3.org/1999/xlink" x="0px" y="0px"
	 viewBox="0 0 510.3 511.5" style="enable-background:new 0 0 510.3 511.5;" xml:space="preserve">
<g>
	<g>
		<g>
			<g>
				<g>
					<g>
						<circle class="st0" cx="395.6" cy="265.3" r="53.6"/>
						<path class="st0" d="M495.7,419.3v18.8H295.4v-18.8c0-1.1,0-2.2,0.1-3.3c0.7-21.7,9.4-41.5,23.1-56.6
							c16.4-18,39.9-29.3,66.1-29.3h10.9h10.9c26.2,0,49.7,11.4,66.1,29.3c13.7,15.1,22.3,34.8,23.1,56.6
							C495.7,417.2,495.7,418.2,495.7,419.3z"/>
					</g>
				</g>
			</g>
		</g>
		<g>
			<g>
				<g>
					<g>
						<circle class="st0" cx="114.8" cy="265.3" r="53.6"/>
						<path class="st0" d="M215,419.3v18.8H14.6v-18.8c0-1.1,0-2.2,0.1-3.3c0.7-21.7,9.4-41.5,23.1-56.6
							c16.4-18,39.9-29.3,66.1-29.3h10.9h10.9c26.2,0,49.7,11.4,66.1,29.3c13.7,15.1,22.3,34.8,23.1,56.6
							C214.9,417.2,215,418.2,215,419.3z"/>
					</g>
				</g>
			</g>
		</g>
	</g>
	<g>
		<g>
			<g>
				<g>
					<circle class="st0" cx="255.1" cy="114.7" r="36.3"/>
					<path class="st0" d="M323,219.1v12.8H187.2v-12.8c0-0.7,0-1.5,0-2.2c0.6-14.7,6.3-28.1,15.6-38.4
						c11.1-12.2,27.1-19.9,44.8-19.9h7.4h7.4c17.8,0,33.7,7.6,44.8,19.9c9.3,10.2,15.1,23.6,15.6,38.4
						C323,217.6,323,218.3,323,219.1z"/>
				</g>
			</g>
		</g>
	</g>
</g>
</svg>
