<svg version="1.0" xmlns="http://www.w3.org/2000/svg" width="600.000000pt" height="545.000000pt" viewBox="0 0 600.000000 545.000000" preserveAspectRatio="xMidYMid meet">
    <g transform="translate(0.000000,545.000000) scale(0.100000,-0.100000)" fill="#000000" stroke="none">
        <path d="M132 5415 c-56 -37 -106 -105 -122 -166 -7 -24 -9 -921 -8 -2545 l3 -2509 31 -55 c35 -62 96 -114 152 -130 25 -7 802 -10 2402 -10 2560 1 2400 -3 2475 55 67 51 80 83 179 455 743 2779 749 2804 750 2875 1 112 -49 195 -148
248 -39 21 -53 22 -358 25 l-318 3 0 389 c0 364 -1 393 -20 442 -20 54 -79 121 -130 149 -21 12 -256 15 -1350 19 l-1325 5 -5 300 c-4 262 -7 304 -23 332 -28 52 -77 102 -121 126 l-41 22 -985 2 -985 2 -53 -34z m1700 -812 l3 -298
29 -53 c36 -64 90 -109 153 -128 38 -12 263 -14 1345 -14 l1298 0 0 -225 0 -225 -1798 0 c-1989 0 -1858 4 -1939 -65 -23 -19 -50 -54 -62 -78 -11 -23 -90 -305 -175 -627 -86 -322 -160 -594 -165 -605 -6 -13 -10 461 -10 1291 -1 721
2 1314 6 1317 3 4 300 7 659 7 l653 0 3 -297z m3083 -1502 c17 -1 133 2 258 5 219 5 229 5 223 -13 -3 -10 -150 -562 -326 -1228 -177 -665 -328 -1234 -336 -1262 l-15 -53 -2060 0 c-1958 0 -2060 1 -2055 18 3 9 154 580 336 1267 182
688 333 1256 335 1263 4 10 361 11 1807 8 992 -2 1817 -5 1833 -5z"/>
    </g>
</svg>
