<?xml version="1.0" encoding="utf-8"?>
<!-- Generator: Adobe Illustrator 24.3.0, SVG Export Plug-In . SVG Version: 6.00 Build 0)  -->
<svg version="1.1" id="Layer_1" xmlns="http://www.w3.org/2000/svg" xmlns:xlink="http://www.w3.org/1999/xlink" x="0px" y="0px"
	 viewBox="0 0 26 26" style="enable-background:new 0 0 26 26;" xml:space="preserve">
<path d="M2.1,4.7c0-1.4,1.1-2.5,2.5-2.5h5.1c1.4,0,2.5,1.1,2.5,2.5v5.1c0,1.4-1.1,2.5-2.5,2.5H4.7c-1.4,0-2.5-1.1-2.5-2.5V4.7z
	 M5,4.3C4.6,4.3,4.3,4.6,4.3,5v4.3c0,0.4,0.3,0.7,0.7,0.7h4.3c0.4,0,0.7-0.3,0.7-0.7V5c0-0.4-0.3-0.7-0.7-0.7H5z M13.7,4.7
	c0-1.4,1.1-2.5,2.5-2.5h5.1c1.4,0,2.5,1.1,2.5,2.5v5.1c0,1.4-1.1,2.5-2.5,2.5h-5.1c-1.4,0-2.5-1.1-2.5-2.5V4.7z M16.6,4.3
	c-0.4,0-0.7,0.3-0.7,0.7v4.3c0,0.4,0.3,0.7,0.7,0.7H21c0.4,0,0.7-0.3,0.7-0.7V5c0-0.4-0.3-0.7-0.7-0.7H16.6z M2.1,16.3
	c0-1.4,1.1-2.5,2.5-2.5h5.1c1.4,0,2.5,1.1,2.5,2.5v5.1c0,1.4-1.1,2.5-2.5,2.5H4.7c-1.4,0-2.5-1.1-2.5-2.5V16.3z M5,15.9
	c-0.4,0-0.7,0.3-0.7,0.7V21c0,0.4,0.3,0.7,0.7,0.7h4.3c0.4,0,0.7-0.3,0.7-0.7v-4.3c0-0.4-0.3-0.7-0.7-0.7H5z M13.7,16.3
	c0-1.4,1.1-2.5,2.5-2.5h5.1c1.4,0,2.5,1.1,2.5,2.5v5.1c0,1.4-1.1,2.5-2.5,2.5h-5.1c-1.4,0-2.5-1.1-2.5-2.5V16.3z M16.6,15.9
	c-0.4,0-0.7,0.3-0.7,0.7V21c0,0.4,0.3,0.7,0.7,0.7H21c0.4,0,0.7-0.3,0.7-0.7v-4.3c0-0.4-0.3-0.7-0.7-0.7H16.6z"/>
</svg>
