<?xml version="1.0" encoding="utf-8"?>
<!-- Generator: Adobe Illustrator 24.3.0, SVG Export Plug-In . SVG Version: 6.00 Build 0)  -->
<svg version="1.1" id="Layer_1" xmlns="http://www.w3.org/2000/svg" xmlns:xlink="http://www.w3.org/1999/xlink" x="0px" y="0px"
	 viewBox="0 0 640 640" style="enable-background:new 0 0 640 640;" xml:space="preserve">
<style type="text/css">
	.st0{fill:#FFFFFF;stroke:#FA5659;stroke-width:7;stroke-miterlimit:10;}
	.st1{fill:#2D84DD;}
	.st2{fill:#FA5659;}
</style>
<circle class="st0" cx="319.8" cy="317.5" r="307.1"/>
<g>
	<polygon class="st1" points="90.9,337.5 91.6,319.6 115.1,320.5 114.4,338.3 110.1,338.1 110.6,325.1 105.3,324.9 104.8,336.9 
		100.6,336.7 101,324.8 95.7,324.6 95.2,337.6 	"/>
	<path class="st1" d="M104.3,371.5l-10.9,1l-0.4-4.6l10-0.9c2.3-0.2,3.6-1.8,3.5-3.8c-0.2-2.4-2-3.9-5.7-3.6l-8.4,0.8l-0.4-4.6
		l10-0.9c2.3-0.2,3.6-1.8,3.5-3.8c-0.2-2.4-2-3.8-5.7-3.5l-8.4,0.8l-0.4-4.6l17.4-1.6l0.4,4.6l-1.4,0.1c1.3,1.1,2.2,2.8,2.4,5
		c0.2,2.3-0.6,4.6-2.3,6c1.9,1.3,3.2,3.3,3.4,6.1C111,367.7,108.5,371.1,104.3,371.5"/>
	<path class="st1" d="M107.4,395.4c-5.4,1.2-9.9-2-10.9-6.4c-0.5-2.3-0.3-4.4,0.6-6.1l-7.1,1.6l-1-4.5l22.9-5.1l1,4.5l-1.4,0.3
		c1.5,1.2,2.6,2.9,3.2,5.2C115.6,389.3,112.8,394.2,107.4,395.4 M106.5,391c3.1-0.7,4.7-3.2,4.1-5.9c-0.5-2.4-3.1-4.4-6.2-3.7
		c-3.1,0.7-4.6,3.6-4,6C100.9,390.1,103.3,391.7,106.5,391"/>
	<path class="st1" d="M114.2,416.1c-5.2,1.7-10.1-1.2-11.7-6c-1.7-5,0.5-10.2,5.7-12c5.2-1.7,10.1,1.2,11.7,6.1
		C121.6,409,119.5,414.3,114.2,416.1 M112.8,411.8c3.1-1,4.2-4.1,3.4-6.3c-0.8-2.4-3.5-4.2-6.6-3.1c-3.1,1-4.2,4.1-3.4,6.4
		C107.1,411.1,109.7,412.8,112.8,411.8"/>
	<polygon class="st1" points="115.7,440.8 113.9,437 121.8,429.5 111,430.7 109.3,426.9 122.7,414.2 124.6,418.4 116.3,426.1 
		127.6,424.8 129.1,428.1 120.9,435.9 132.1,434.5 134.1,438.6 	"/>
	<path class="st1" d="M135.5,459.9l-6.9-11.4c-1.9,1.7-2.3,4-1.2,5.9c0.7,1.2,1.8,2.5,4.2,2.5l1.4,4c-3.9,0.6-7-1.2-9-4.4
		c-2.6-4.2-1.5-9.6,3.2-12.5s10-1.4,12.6,2.9c2.4,4,1.4,9.3-3,12.2L135.5,459.9z M131.4,446.9l4.4,7.2c1.6-1.7,1.6-3.6,0.6-5.2
		C135.5,447.4,133.6,446.3,131.4,446.9"/>
	<path class="st1" d="M153.2,467.1l-3.7,2.4l-0.6-0.8c-2.5-3.5-5.8-3.5-9.7-0.6l-4.6,3.3l-2.7-3.7l14.1-10.3l2.7,3.7l-2.6,1.9
		c2.5-0.1,4.8,0.8,6.5,3.1C152.9,466.4,153.1,466.7,153.2,467.1"/>
	<path class="st1" d="M141.6,480.6l13.5-11.1l2.9,3.6l-13.5,11.1L141.6,480.6z M162.4,470.1c-1.2,1-2.8,0.8-3.9-0.4
		c-1-1.3-0.9-2.9,0.3-3.9c1.1-0.9,2.9-0.9,3.9,0.4C163.8,467.4,163.5,469.1,162.4,470.1"/>
	<path class="st1" d="M168.1,494l-7.7,7.4l-3.2-3.3l7-6.7c1.8-1.7,2-3.9,0.5-5.4c-1.8-1.9-4.3-1.9-7.4,1l-5.6,5.4l-3.2-3.3
		l12.7-12.1l3.2,3.3l-1.1,1.1c1.9,0,3.7,0.9,5.3,2.5C171.5,486.9,171.2,491,168.1,494"/>
	<path class="st1" d="M178.8,515.3c-3.5,4.1-8.2,3.9-12.5,0.3c-3.1-2.6-4.4-5.6-4-8.5l4.7,0.3c-0.1,2.2,0.3,3.5,2,5
		c2.2,1.9,4.9,1.8,6.9-0.5l0.2-0.2c-1.7,0-3.4-0.8-5.2-2.3c-3.3-2.8-4-8.3-0.9-12c3.1-3.6,8.6-3.8,11.9-0.9c1.8,1.6,2.8,3.2,3.1,4.8
		l0.7-0.8l3.4,2.9L178.8,515.3z M180.5,506.3c1.8-2.1,1.2-4.9-0.6-6.5c-2.1-1.8-4.9-1.8-6.6,0.3c-1.8,2.1-1.4,4.8,0.7,6.6
		C175.8,508.4,178.7,508.4,180.5,506.3"/>
	<path class="st1" d="M212,511.7c4.6,2.9,5.7,7.3,3.2,11.3s-7,4.9-11.6,2.1l-5.2-3.3l-4.1,6.5l-4-2.5l12.5-19.9L212,511.7z
		 M205.9,521.5c2.2,1.4,4.1,0.9,5.3-0.9c1.1-1.8,0.7-3.8-1.4-5.1l-5.2-3.3l-3.8,6.1L205.9,521.5z"/>
	<path class="st1" d="M227.4,546.5l-4.2-2l0.6-1.2c-1.8,0.4-3.9,0.2-6-0.8c-4-2-6.1-7.1-3.6-12.1c2.4-4.9,7.8-6.5,11.8-4.6
		c2.1,1,3.6,2.5,4.3,4.3l0.6-1.3l4.2,2L227.4,546.5z M227,536.6c1.4-2.9,0.1-5.8-2.2-6.9c-2.5-1.2-5.3-0.3-6.7,2.6
		c-1.4,2.9-0.4,5.6,2.1,6.9C222.5,540.2,225.6,539.5,227,536.6"/>
	<path class="st1" d="M250.8,536.8l-1.8,4.1l-1-0.4c-4-1.5-6.8,0.2-8.5,4.8l-2,5.3l-4.3-1.7l6.3-16.3l4.3,1.7l-1.1,3
		c2-1.4,4.4-2,7.1-1C250.1,536.3,250.4,536.5,250.8,536.8"/>
	<path class="st1" d="M266.2,551.9l-12.8-3.7c-0.3,2.6,1,4.5,3.1,5.1c1.3,0.4,3,0.7,4.8-1l3.7,2c-2.5,3.1-6,3.9-9.7,2.8
		c-4.7-1.4-7.6-6.1-6-11.4c1.5-5.3,6.5-7.8,11.3-6.4c4.5,1.3,7.3,5.9,6,11.1L266.2,551.9z M254.4,545.1l8.1,2.4
		c0.1-2.3-1.3-3.7-3.1-4.3C257.8,542.7,255.6,543.2,254.4,545.1"/>
	<path class="st1" d="M287.7,553l-2,10.5l-4.6-0.9l1.8-9.5c0.5-2.4-0.6-4.3-2.7-4.7c-2.6-0.5-4.6,0.9-5.4,5.1l-1.4,7.6l-4.5-0.9
		l3.2-17.2l4.5,0.9l-0.3,1.6c1.6-1.1,3.5-1.5,5.8-1C286.3,545.2,288.5,548.7,287.7,553"/>
	<path class="st1" d="M304.2,564.6c-1.9,0.8-3.2,1-4.7,0.8c-4.1-0.4-6.6-2.8-6.1-7.6l0.7-7.2l-3.7-0.4l0.4-3.8l3.7,0.4l0.5-5.3
		l4.6,0.5l-0.5,5.3l5.7,0.6l-0.4,3.8l-5.7-0.6L298,558c-0.2,2.1,0.7,3.1,2.2,3.3c0.8,0.1,2-0.1,3-0.5L304.2,564.6z"/>
	<path class="st1" d="M311.1,560.1c0.2,1.8,1.7,2.4,3.6,2.5c1.7,0,2.8-0.7,2.8-1.7c0-0.6-0.4-1.3-1.9-1.6l-3.6-0.8
		c-3.1-0.7-4.9-2.6-4.8-5.1c0.1-3.4,2.9-5.7,7.3-5.6c4.1,0.1,7,2.3,7.5,5.4l-4.4,0.8c-0.1-1.4-1.3-2.5-3.3-2.5
		c-1.9,0-2.4,0.9-2.4,1.7c0,0.6,0.2,1.2,1.5,1.5l4.2,1c3.1,0.7,4.5,2.7,4.5,5.1c-0.1,3.9-3.3,5.8-7.8,5.7c-3.9-0.1-7.4-1.7-7.7-5.3
		L311.1,560.1z"/>
	<polygon class="st1" points="371.6,560 354,563.3 349.6,540.2 367.1,536.9 367.9,541.1 355.1,543.6 356.1,548.8 367.9,546.5 
		368.7,550.7 356.9,552.9 357.9,558.2 370.8,555.7 	"/>
	<path class="st1" d="M390.7,543.4l3.1,10.2l-4.4,1.3l-2.8-9.3c-0.7-2.4-2.5-3.5-4.6-2.9c-2.5,0.8-3.7,2.9-2.4,7l2.2,7.4l-4.4,1.3
		l-5-16.8l4.4-1.3l0.5,1.5c0.9-1.7,2.5-2.9,4.7-3.6C385.9,537.1,389.4,539.2,390.7,543.4"/>
	<path class="st1" d="M403.9,530.8l1.4,4.2l-0.9,0.4c-4,1.6-4.8,4.7-3.1,9.3l2.1,5.3l-4.3,1.7l-6.4-16.3l4.3-1.7l1.2,3
		c0.6-2.4,1.9-4.5,4.6-5.5C403.1,530.9,403.5,530.8,403.9,530.8"/>
	<path class="st1" d="M409.1,522.7c0.7,1.4,0.1,3-1.4,3.6c-1.5,0.7-3,0.1-3.7-1.3c-0.6-1.3-0.1-3,1.4-3.7
		C406.8,520.6,408.5,521.3,409.1,522.7 M414,545.4l-7.4-15.9l4.2-2l7.4,15.9L414,545.4z"/>
	<path class="st1" d="M431.3,528.6l4.3-1.1c1.1,4-0.8,8-4.5,10c-4.5,2.5-10,1.3-12.7-3.6c-2.7-4.8-0.8-10.2,3.7-12.7
		c3.6-2,7.9-1.5,10.8,1.4l-3.3,3.3c-1.7-1.8-3.7-1.9-5.5-0.9c-2.5,1.4-3.3,4.2-1.8,6.8s4.1,3.4,6.7,2
		C430.8,532.7,431.8,531.1,431.3,528.6"/>
	<path class="st1" d="M450.8,511.5l6.1,8.8l-3.8,2.6l-5.5-8c-1.4-2-3.5-2.6-5.2-1.4c-2.2,1.5-2.6,3.9-0.1,7.4l4.4,6.4l-3.8,2.6
		l-14.4-20.8l3.8-2.6l5.3,7.7c0.3-1.9,1.4-3.5,3.3-4.9C444.3,507.1,448.3,507.9,450.8,511.5"/>
	<path class="st1" d="M451.1,495.7c1,1.2,0.8,2.8-0.5,3.9c-1.3,1-2.9,0.9-3.9-0.3c-0.9-1.1-0.8-2.9,0.4-3.9
		C448.4,494.3,450.2,494.5,451.1,495.7 M461.4,516.6l-11-13.6l3.6-2.9l11,13.6L461.4,516.6z"/>
	<path class="st1" d="M475.1,490.2l7.3,7.8l-3.4,3.2l-6.6-7.1c-1.7-1.8-3.8-2-5.4-0.6c-1.9,1.8-2,4.3,1,7.4l5.3,5.6l-3.4,3.2
		l-12-12.8l3.4-3.2l1.1,1.2c0.1-1.9,0.9-3.7,2.6-5.3C468,486.8,472.1,487.1,475.1,490.2"/>
	<path class="st1" d="M496.4,479.7c4.1,3.5,3.9,8.3,0.2,12.5c-2.7,3.1-5.7,4.4-8.5,3.9l0.3-4.7c2.2,0.1,3.5-0.2,5-1.9
		c1.9-2.2,1.8-4.9-0.5-6.9l-0.2-0.2c-0.1,1.7-0.8,3.4-2.4,5.2c-2.9,3.3-8.4,4-12,0.8c-3.6-3.1-3.7-8.6-0.8-11.9
		c1.6-1.8,3.2-2.8,4.8-3.1l-0.8-0.7l2.9-3.4L496.4,479.7z M487.5,477.9c-2.1-1.8-4.9-1.3-6.5,0.6c-1.8,2.1-1.8,4.8,0.3,6.6
		c2.1,1.8,4.8,1.4,6.6-0.7C489.5,482.6,489.6,479.7,487.5,477.9"/>
	<path class="st1" d="M508.6,447.6l3.3-3.4c4.5,4.2,4.8,10,1.8,14.8c-3.7,5.8-11.1,7.6-17,3.9c-5.8-3.7-7.5-11.1-3.8-17
		c3-4.8,8.4-7,13.8-5l-1.4,4.6c-3.9-1.4-6.9,0-8.7,2.7c-2.2,3.6-1.2,8.2,2.6,10.5c3.8,2.4,8.4,1.4,10.6-2.2
		C511.7,453.9,511.6,450.5,508.6,447.6"/>
	<path class="st1" d="M519.8,423.9l9.6,4.6l-2,4.2l-8.7-4.2c-2.2-1.1-4.3-0.5-5.2,1.4c-1.1,2.4-0.3,4.7,3.5,6.5l7,3.4l-2,4.2
		l-22.7-11l2-4.2l8.4,4.1c-0.6-1.8-0.5-3.8,0.5-5.9C512,423.2,515.9,422,519.8,423.9"/>
	<path class="st1" d="M512.3,410c1.4,0.6,2.1,2.1,1.5,3.6s-2.1,2.2-3.5,1.6c-1.4-0.5-2.2-2.1-1.5-3.6
		C509.3,410.1,510.9,409.5,512.3,410 M531.5,423.1l-16.3-6.4l1.7-4.3l16.3,6.4L531.5,423.1z"/>
	
		<rect x="521.7" y="394.5" transform="matrix(0.3239 -0.9461 0.9461 0.3239 -30.8362 770.9667)" class="st1" width="4.6" height="25.2"/>
	<path class="st1" d="M543.1,386.2l-1.2,4.5l-1.3-0.3c0.8,1.7,1,3.8,0.4,6.1c-1.1,4.3-5.8,7.4-11.1,6s-8-6.3-6.8-10.7
		c0.6-2.3,1.8-4,3.3-5.1l-8.9-2.3l1.2-4.5L543.1,386.2z M533.5,388.5c-3.1-0.8-5.7,1.1-6.3,3.5c-0.7,2.7,0.7,5.3,3.9,6.1
		c3.1,0.8,5.6-0.7,6.3-3.4C538,392.2,536.7,389.3,533.5,388.5"/>
	<path class="st1" d="M528.9,365.2l4.4,1l-0.2,1c-0.7,4.2,1.6,6.6,6.4,7.4l5.6,0.9l-0.8,4.6l-17.3-2.9l0.8-4.6l3.1,0.5
		c-1.8-1.7-2.8-4-2.4-6.8C528.7,365.9,528.7,365.6,528.9,365.2"/>
	<path class="st1" d="M540.7,347.1l-1.1,13.3c2.6-0.2,4.2-1.9,4.4-4c0.1-1.4,0.1-3.1-1.9-4.5l1.2-4.1c3.5,1.8,5,5.1,4.7,8.9
		c-0.4,4.9-4.5,8.6-10,8.2c-5.5-0.5-8.9-4.8-8.5-9.8c0.4-4.6,4.3-8.4,9.7-8.1L540.7,347.1z M536.4,359.9l0.7-8.4
		c-2.3,0.4-3.4,2-3.6,3.9C533.4,357.1,534.2,359.2,536.4,359.9"/>
	<path class="st1" d="M537.5,325.7l10.7-0.1l0.1,4.6l-9.7,0.1c-2.5,0-4.1,1.5-4.1,3.6c0,2.6,1.8,4.3,6.1,4.3l7.7-0.1l0.1,4.6
		l-17.5,0.2l-0.1-4.6h1.6c-1.4-1.3-2.1-3.2-2.2-5.5C530.1,328.6,533.1,325.8,537.5,325.7"/>
	<path class="st1" d="M339.6,555.2c-0.1,2-1.9,3.5-3.9,3.4s-3.5-1.9-3.4-3.9s1.9-3.5,3.9-3.4C338.3,551.5,339.8,553.2,339.6,555.2"
		/>
	<path class="st1" d="M118.1,283.5l-3.5,11.7l-54.7-16.4l6.3-21c1.2-4.1,3-7.6,5.2-10.6c2.3-2.9,5-5,8.1-6.1c3.1-1.2,6.7-1.1,10.6,0
		c3.1,0.9,5.6,2.4,7.5,4.5s3.2,4.6,3.8,7.4c0.6,2.8,0.4,5.9-0.6,9.3l-3.3,2.5c1-3.2,2.2-5.6,3.7-7.2s3.4-2.8,5.7-3.6
		c2.3-0.8,5.2-1.4,8.7-2l12.4-2l-3.9,12.8l-11.2,1.9c-1.9,0.3-3.6,0.8-5,1.3c-1.4,0.6-2.6,1.4-3.6,2.6c-1,1.1-1.8,2.8-2.4,4.8
		l-1.7,5.8L89.6,276l3.1-10.4c0.6-1.9,0.8-3.7,0.6-5.3c-0.2-1.6-0.8-3-1.7-4.2c-1-1.2-2.3-2.1-4-2.6c-1.8-0.6-3.4-0.6-4.8-0.1
		s-2.5,1.4-3.5,2.7c-0.9,1.3-1.7,2.8-2.2,4.6l-2.8,9.3L118.1,283.5z"/>
	<path class="st1" d="M153.4,208.1l-15.9,26.3c-2,3.3-4.3,5.2-6.8,5.7s-5.2-0.2-7.9-1.8l-30.6-18.6c-2.8-1.7-4.6-3.8-5.4-6.2
		s-0.1-5.3,1.9-8.7l15.6-25.8l9.5,5.8l-14.9,24.6l29.8,18.1l15.2-25L153.4,208.1z M132.5,198.1L117,223.6l-10.3-4.4l16.3-26.9
		L132.5,198.1z"/>
	<path class="st1" d="M172.9,189c-3.6,3.6-7.5,6.1-11.8,7.4c-4.3,1.3-8.5,1.2-12.7-0.4l3.6-11c2.1,0.8,4.2,0.8,6.4,0.2
		c2.2-0.7,4.3-2.1,6.4-4.1c1.3-1.3,2.2-2.6,2.9-3.9c0.6-1.3,0.9-2.6,0.8-3.9c-0.1-1.3-0.6-2.4-1.5-3.3c-1.1-1.1-2.3-1.6-3.5-1.6
		c-1.2,0.1-2.5,0.5-3.9,1.4s-2.9,1.9-4.5,3c-1.8,1.3-3.7,2.5-5.9,3.7c-2.1,1.2-4.3,2.1-6.7,2.7c-2.3,0.6-4.7,0.6-7.1,0
		c-2.4-0.6-4.7-2-7-4.3c-2.4-2.4-3.9-5.1-4.5-8.3c-0.6-3.1-0.3-6.4,0.8-9.7c1.1-3.3,3.1-6.4,5.8-9.2c3.3-3.4,7.1-5.7,11.3-6.9
		s8.3-1,12.5,0.6l-3.6,11c-2-0.7-4-0.7-6.2-0.2c-2.1,0.6-4.2,1.9-6.2,3.9c-1.1,1.1-1.9,2.2-2.4,3.4s-0.7,2.3-0.6,3.4
		c0.1,1.1,0.6,2,1.5,2.9c1.1,1.1,2.3,1.6,3.6,1.5s2.7-0.5,4.2-1.4s3.1-1.9,4.8-3.1c1.8-1.2,3.7-2.5,5.8-3.6c2.1-1.2,4.2-2,6.5-2.5
		s4.6-0.5,6.9,0.1c2.4,0.6,4.7,2,7,4.3c2.4,2.4,3.9,5.2,4.4,8.5s0.2,6.6-1,10C177.8,183,175.8,186.2,172.9,189"/>
	
		<rect x="177.7" y="112.6" transform="matrix(0.8177 -0.5756 0.5756 0.8177 -47.7142 131.587)" class="st1" width="12.4" height="57.1"/>
	<path class="st1" d="M202.6,96.8l19.6,41.2l24.1-11.5l4.9,10.3L225.9,149c-3.5,1.7-6.5,2-8.8,1c-2.4-1-4.2-3-5.6-5.9l-20-42
		L202.6,96.8z"/>
	
		<rect x="249.5" y="78.4" transform="matrix(0.9628 -0.2702 0.2702 0.9628 -19.3932 73.0678)" class="st1" width="12.4" height="57.1"/>
	<path class="st1" d="M322.3,125.7l-30.6,2.8c-3.9,0.4-6.8-0.3-8.6-2.1c-1.9-1.8-2.9-4.2-3.2-7.5l-3.3-35.7c-0.3-3.3,0.3-5.9,1.8-8
		s4.2-3.3,8.1-3.6l30.1-2.7l1,11.1L289,82.6l3.2,34.7l29.2-2.7L322.3,125.7z M317.9,103l-29.7,2.7l-2.6-10.9l31.3-2.9L317.9,103z"/>
	<path class="st1" d="M341.9,127.5l-11.6-2l8.6-48.5c0.3-1.8,1-3.4,2.1-4.6c1-1.2,2.3-2,3.8-2.5s2.9-0.6,4.4-0.3
		c1.8,0.3,3.4,1,4.7,1.9c1.3,1,2.3,2.3,2.9,4l16.7,45.3c-0.2-0.2-0.4-0.3-0.5-0.4c-0.2-0.1-0.3-0.1-0.4-0.1c-0.2,0-0.3,0-0.5,0.2
		c-0.2,0.1-0.3,0.4-0.4,0.7l7.9-45l11.5,2l-8.6,48.5c-0.3,1.9-1,3.4-2.1,4.6c-1,1.2-2.3,2-3.7,2.4c-1.4,0.4-2.9,0.5-4.3,0.3
		c-1.8-0.3-3.4-1-4.7-1.9c-1.4-1-2.4-2.3-3-3.9L348.2,83c0.1,0.1,0.3,0.2,0.4,0.3c0.1,0.1,0.3,0.1,0.5,0.1s0.3,0,0.5-0.2
		c0.1-0.1,0.2-0.4,0.3-0.6L341.9,127.5z"/>
	<path class="st1" d="M425,91.5l11.2,5.2l-24,51.8l-11.2-5.2L425,91.5z M451.5,103.8l-4.8,10.4L405,94.9l4.8-10.4L451.5,103.8z"/>
	<path class="st2" d="M441.8,166.4l-9.6-7.8l35.9-44.4l9.6,7.8L441.8,166.4z M472.3,147.1l-7.1,8.8l-12.3-9.9l7.1-8.8L472.3,147.1z
		 M472.1,190.8l-11.8-9.5l0.6-21.8c0.1-2.3,0.5-4.5,1.1-6.4s1.4-3.5,2.5-4.9s2.5-2.6,4.2-3.6s3.7-1.8,6.1-2.4l21.8-5l11,8.8
		l-25.8,6.1c-1.8,0.5-3.3,1-4.5,1.5s-2.1,1.2-2.8,2c-0.7,0.8-1.1,1.9-1.4,3.1c-0.2,1.2-0.4,2.8-0.5,4.7L472.1,190.8z"/>
	
		<rect x="472.3" y="177" transform="matrix(0.7681 -0.6403 0.6403 0.7681 -1.1685 363.177)" class="st2" width="57.1" height="12.4"/>
	<path class="st2" d="M541,248c-3.8,2-7.7,3.2-11.5,3.5s-7.5-0.2-11-1.5s-6.7-3.3-9.7-6c-2.9-2.7-5.5-6-7.6-10l-9.9-18.6l50.4-26.9
		l10,18.8c2.9,5.4,4.4,10.8,4.5,15.9c0.1,5.2-1.2,9.9-3.7,14.2C549.9,241.8,546,245.3,541,248 M535,236.8c3-1.6,5.3-3.7,6.9-6.2
		c1.5-2.5,2.3-5.3,2.3-8.4c0-3.1-0.9-6.2-2.6-9.4l-4.2-7.9l-30.5,16.2l4.1,7.6c1.3,2.4,2.8,4.4,4.6,5.9c1.8,1.6,3.7,2.7,5.8,3.5
		s4.3,1,6.6,0.8C530.3,238.8,532.6,238,535,236.8"/>
	<path class="st2" d="M537.2,303.7l-11.1,2.6l-7.2-30.2c-0.6-2.5-0.6-4.6,0-6.5c0.6-1.8,1.5-3.3,2.9-4.4c1.3-1.1,2.8-1.9,4.6-2.3
		c1.5-0.4,3-0.4,4.6-0.2c1.6,0.2,3.1,0.8,4.5,1.6l31.2,18.2c0.1,0,0.1,0.1,0.1,0.1s0.1,0,0.2,0c0.1,0,0.2-0.1,0.2-0.1s0.1-0.1,0-0.2
		l-6.2-26l11.1-2.6l6.9,29.2c0.6,2.4,0.6,4.6,0.1,6.4c-0.5,1.9-1.4,3.4-2.7,4.6s-2.8,2-4.6,2.4c-1.4,0.3-2.9,0.4-4.5,0.1
		c-1.7-0.2-3.3-0.8-4.9-1.8l-30.9-18.1c-0.1,0-0.2-0.1-0.2-0.1c-0.1,0-0.2,0-0.3,0s-0.2,0.1-0.2,0.1c0,0.1-0.1,0.2,0,0.3
		L537.2,303.7z"/>
</g>
</svg>
