<svg version="1.1" id="Layer_1" xmlns="http://www.w3.org/2000/svg" xmlns:xlink="http://www.w3.org/1999/xlink" x="0px" y="0px"
	 viewBox="0 0 100 100" style="enable-background:new 0 0 100 100;" xml:space="preserve">
<g>
	<path d="M36.8,62.1c-0.3-2.3-2.1-4-4.3-4.3v0h-2.1H27h-5.7V34.4c0-4.8-4.1-8.8-9.1-8.8S3,29.5,3,34.4v22.8v4.6v2.4
		c0,3.5,2.9,6.4,6.4,6.4h18.7l2.6,23.2c0.3,2.6,2.7,4.5,5.3,4.3c2.6-0.3,4.5-2.7,4.3-5.3L36.8,62.1z"/>
	<circle cx="11.8" cy="12.8" r="10.9"/>
	<path d="M87.9,25.6c-5,0-9.1,3.9-9.1,8.8v23.4H73h-3.5h-2.1v0c-2.2,0.2-4,2-4.3,4.3l-3.4,30.6c-0.3,2.6,1.6,5,4.3,5.3
		c2.6,0.3,5-1.6,5.3-4.3l2.6-23.2h18.7c3.5,0,6.4-2.9,6.4-6.4v-2.4v-4.6V34.4C97,29.5,92.9,25.6,87.9,25.6z"/>
	<circle cx="88.2" cy="12.8" r="10.9"/>
	<path d="M73.4,47.8H67c0-0.1,0-0.3,0-0.4l-2.8-15.5c0-3.5-2.5-6.3-5.7-6.3h-17c-3.1,0-5.7,2.8-5.7,6.3L33,47.4c0,0.1,0,0.3,0,0.4
		h-6.4V54h46.8V47.8z"/>
	<circle cx="50" cy="12.8" r="10.9"/>
	<path d="M44.8,53.8v43.9h10.4V53.8H44.8z"/>
</g>
</svg>
