<?xml version="1.0" encoding="utf-8"?>
<!-- Generator: Adobe Illustrator 24.3.0, SVG Export Plug-In . SVG Version: 6.00 Build 0)  -->
<svg version="1.1" id="Isolation_Mode" xmlns="http://www.w3.org/2000/svg" xmlns:xlink="http://www.w3.org/1999/xlink" x="0px"
	 y="0px" viewBox="0 0 137.9 185.5" style="enable-background:new 0 0 137.9 185.5;" xml:space="preserve">
<style type="text/css">
	.st0{opacity:0.23;fill:#FFFFFF;}
</style>
<path class="st0" d="M84.8,130.6l42.3,25.4c0.9,0.6,1.4,1.6,1.3,2.7l-2.1,23.1c-0.2,2.2-2.9,3.3-4.6,1.8l-64.5-53
	c-1.5-1.3-3-2.6-4.4-4c-3.9-3.8-7.6-8.2-10.9-14.3L2,36.9c-1-1.9,0.5-4.2,2.7-4l27.3,2.5c1.2,0.1,2.2,1,2.5,2.2l10.4,48.2
	c1.6,6.6,10.5,7.7,13.7,1.7l19.7-45.3c0.5-1.1,1.6-1.8,2.8-1.7l24.3,2.5c2.1,0.2,3.2,2.6,2,4.3l-41.5,55.7c-1.4,1.9,0.7,4.4,2.8,3.5
	l63.5-28.3c1.9-0.8,4.1,0.7,3.8,2.8l-2.4,25.3c-0.1,1.2-1.1,2.2-2.3,2.4l-44.7,8.1C80.1,118.5,78.9,127.3,84.8,130.6"/>
<path class="st0" d="M69.1,7.4c5.2,6.4,4.2,15.8-2.1,21c-6.4,5.2-15.8,4.2-21-2.1c-5.2-6.4-4.2-15.8,2.1-21C54.5,0,63.9,1,69.1,7.4"
	/>
</svg>
