<?xml version="1.0" encoding="utf-8"?>
<!-- Generator: Adobe Illustrator 24.3.0, SVG Export Plug-In . SVG Version: 6.00 Build 0)  -->
<svg version="1.1" id="Isolation_Mode" xmlns="http://www.w3.org/2000/svg" xmlns:xlink="http://www.w3.org/1999/xlink" x="0px"
	 y="0px" viewBox="0 0 98.2 194.7" style="enable-background:new 0 0 98.2 194.7;" xml:space="preserve">
<style type="text/css">
	.st0{fill:#FFC72F;}
</style>
<path class="st0" d="M24.3,127.6L41,174c0.4,1,0.1,2.2-0.7,2.9l-16.2,16.5c-1.6,1.6-4.3,0.7-4.7-1.5L2.9,110.2
	c-0.4-1.9-0.7-3.9-0.9-5.9c-0.6-5.4-0.7-11.1,0.6-17.9L19.3,2.7c0.4-2.2,3.1-3,4.6-1.4l19.6,19.2c0.9,0.8,1.1,2.2,0.5,3.2l-22.3,44
	c-2.9,6.1,3.3,12.6,9.6,10L75.2,55c1.1-0.6,2.4-0.4,3.2,0.5l17.3,17.3c1.5,1.5,0.9,4.1-1.2,4.6l-67.4,17c-2.3,0.6-2.3,3.8,0,4.5
	l67.1,18.1c2,0.6,2.7,3.1,1.2,4.6l-17.9,18.1c-0.9,0.9-2.3,1-3.3,0.4l-39.8-22C28.4,115.2,21.8,121.3,24.3,127.6"/>
<path class="st0" d="M90,22.1C90,30.4,83.3,37,75.1,37c-8.2,0-14.9-6.7-14.9-14.9c0-8.2,6.7-14.9,14.9-14.9
	C83.3,7.2,90,13.9,90,22.1"/>
</svg>
