<?xml version="1.0" encoding="utf-8"?>
<!-- Generator: Adobe Illustrator 24.3.0, SVG Export Plug-In . SVG Version: 6.00 Build 0)  -->
<svg version="1.1" id="Layer_1" xmlns="http://www.w3.org/2000/svg" xmlns:xlink="http://www.w3.org/1999/xlink" x="0px" y="0px"
	 viewBox="0 0 151 151" style="enable-background:new 0 0 151 151;" xml:space="preserve">
<style type="text/css">
	.st0{fill:#FA555A;}
</style>
<g transform="translate(0.000000,151.000000) scale(0.100000,-0.100000)">
	<path class="st0" d="M628,1489c-9-5-41-41-69-80c-49-65-55-70-83-65c-17,3-60,8-96,11c-93,9-101,1-120-121l-15-97l-78-33
		c-43-18-85-38-93-45c-22-18-17-71,16-144c17-37,30-72,30-78s-20-36-43-66c-88-113-87-128,19-208c70-53,75-59,70-87
		c-3-17-8-60-11-96c-9-92-1-100,119-119l97-16l34-79c19-43,40-85,46-92c18-22,72-16,144,16c37,16,72,30,78,30c7,0,41-23,76-50
		c104-82,121-79,202,31c49,65,55,70,83,65c17-3,60-8,96-11c92-9,100-1,120,120l15,98l78,33c43,18,85,38,93,45c22,18,17,71-16,144
		c-16,37-30,72-30,78s20,36,43,66c88,113,87,128-19,208c-70,53-75,59-70,87c3,17,8,60,11,96c9,92,1,100-119,119l-97,16l-34,79
		c-19,43-40,85-46,92c-18,22-72,16-144-16c-37-16-72-30-78-30s-36,20-66,43C684,1501,663,1510,628,1489z"/>
</g>
</svg>
