<?xml version="1.0" encoding="utf-8"?>
<!-- Generator: Adobe Illustrator 24.3.0, SVG Export Plug-In . SVG Version: 6.00 Build 0)  -->
<svg version="1.1" id="Layer_1" xmlns="http://www.w3.org/2000/svg" xmlns:xlink="http://www.w3.org/1999/xlink" x="0px" y="0px"
	 viewBox="0 0 28 28" style="enable-background:new 0 0 28 28;" xml:space="preserve">
<style type="text/css">
	.st0{fill:#FA555A;}
</style>
<path class="st0" d="M25.2,11.3h-7.9c-0.3,0-0.6-0.3-0.6-0.6V2.8c0-1.5-1.2-2.7-2.7-2.7s-2.7,1.2-2.7,2.7v7.9c0,0.3-0.3,0.6-0.6,0.6
	H2.8c-1.5,0-2.7,1.2-2.7,2.7s1.2,2.7,2.7,2.7h7.9c0.3,0,0.6,0.3,0.6,0.6v7.9c0,1.5,1.2,2.7,2.7,2.7s2.7-1.2,2.7-2.7v-7.9
	c0-0.3,0.3-0.6,0.6-0.6h7.9c1.5,0,2.7-1.2,2.7-2.7l0,0C27.9,12.5,26.7,11.3,25.2,11.3z"/>
</svg>
