<?xml version="1.0" encoding="utf-8"?>
<!-- Generator: Adobe Illustrator 24.3.0, SVG Export Plug-In . SVG Version: 6.00 Build 0)  -->
<svg version="1.1" id="Layer_1" xmlns="http://www.w3.org/2000/svg" xmlns:xlink="http://www.w3.org/1999/xlink" x="0px" y="0px"
	 viewBox="0 0 8.2 1404.1" style="enable-background:new 0 0 8.2 1404.1;" xml:space="preserve">
<style type="text/css">
	.st0{fill:url(#SVGID_1_);}
</style>
<g>
	
		<linearGradient id="SVGID_1_" gradientUnits="userSpaceOnUse" x1="4.4" y1="13.4851" x2="4.4" y2="1390.3119" gradientTransform="matrix(1 0 0 -1 0 1406.297)">
		<stop  offset="0" style="stop-color:#03CB8F"/>
		<stop  offset="0.24" style="stop-color:#2D87E1"/>
		<stop  offset="0.26" style="stop-color:#9CC624"/>
		<stop  offset="0.5" style="stop-color:#9CC624"/>
		<stop  offset="0.51" style="stop-color:#F7C82C"/>
		<stop  offset="0.75" style="stop-color:#FEC82D"/>
		<stop  offset="0.8003" style="stop-color:#FC784C"/>
		<stop  offset="1" style="stop-color:#FA555A"/>
	</linearGradient>
	<path class="st0" d="M5.9,1392.8h-3v-11.6h3V1392.8z M5.9,1366.6h-3v-11.6h3V1366.6z M5.9,1340.3h-3v-11.6h3V1340.3z M5.9,1314h-3
		v-11.6h3V1314z M5.9,1287.8h-3v-11.6h3V1287.8z M5.9,1261.5h-3v-11.6h3V1261.5z M5.9,1235.3h-3v-11.6h3V1235.3z M5.9,1209h-3v-11.6
		h3V1209z M5.9,1182.8h-3v-11.6h3V1182.8z M5.9,1156.5h-3v-11.6h3V1156.5z M5.9,1130.2h-3v-11.6h3V1130.2z M5.9,1104h-3v-11.6h3
		V1104z M5.9,1077.7h-3v-11.6h3V1077.7z M5.9,1051.5h-3v-11.6h3V1051.5z M5.9,1025.2h-3v-11.6h3V1025.2z M5.9,999h-3v-11.6h3V999z
		 M5.9,972.7h-3v-11.6h3V972.7z M5.9,946.4h-3v-11.6h3V946.4z M5.9,920.2h-3v-11.6h3V920.2z M5.9,893.9h-3v-11.6h3V893.9z
		 M5.9,867.7h-3v-11.6h3V867.7z M5.9,841.4h-3v-11.6h3V841.4z M5.9,815.2h-3v-11.6h3V815.2z M5.9,788.9h-3v-11.6h3V788.9z
		 M5.9,762.8h-3v-11.6h3V762.8z M5.9,736.5h-3v-11.6h3V736.5z M5.9,710.3h-3v-11.6h3V710.3z M5.9,684h-3v-11.6h3V684z M5.9,657.8h-3
		v-11.6h3V657.8z M5.9,631.5h-3v-11.6h3V631.5z M5.9,605.2h-3v-11.6h3V605.2z M5.9,579h-3v-11.6h3V579z M5.9,552.7h-3v-11.6h3V552.7
		z M5.9,526.5h-3v-11.6h3V526.5z M5.9,500.2h-3v-11.6h3V500.2z M5.9,474h-3v-11.6h3V474z M5.9,447.7h-3v-11.6h3V447.7z M5.9,421.4
		h-3v-11.6h3V421.4z M5.9,395.2h-3v-11.6h3V395.2z M5.9,368.9h-3v-11.6h3V368.9z M5.9,342.7h-3v-11.6h3V342.7z M5.9,316.4h-3v-11.6
		h3V316.4z M5.9,290.2h-3v-11.6h3V290.2z M5.9,263.9h-3v-11.6h3V263.9z M5.9,237.6h-3V226h3V237.6z M5.9,211.4h-3v-11.6h3V211.4z
		 M5.9,185.1h-3v-11.6h3V185.1z M5.9,158.9h-3v-11.6h3V158.9z M5.9,132.6h-3V121h3V132.6z M5.9,106.4h-3V94.8h3V106.4z M5.9,80.1h-3
		V68.5h3V80.1z M5.9,53.8h-3V42.2h3V53.8z M5.9,27.6h-3V16h3V27.6z"/>
</g>
</svg>
