<?xml version="1.0" encoding="utf-8"?>
<!-- Generator: Adobe Illustrator 24.3.0, SVG Export Plug-In . SVG Version: 6.00 Build 0)  -->
<svg version="1.1" id="Layer_1" xmlns="http://www.w3.org/2000/svg" xmlns:xlink="http://www.w3.org/1999/xlink" x="0px" y="0px"
	 viewBox="0 0 969.7 229.3" style="enable-background:new 0 0 969.7 229.3;" xml:space="preserve">
<style type="text/css">
	.st0{fill:url(#SVGID_1_);}
</style>
<g>
	
		<linearGradient id="SVGID_1_" gradientUnits="userSpaceOnUse" x1="3.7" y1="117.15" x2="968" y2="117.15" gradientTransform="matrix(1 0 0 -1 0 232)">
		<stop  offset="0.1959" style="stop-color:#FA555A"/>
		<stop  offset="0.2149" style="stop-color:#FC784C"/>
		<stop  offset="0.2218" style="stop-color:#FA5E56"/>
		<stop  offset="0.2287" style="stop-color:#FDA13C"/>
		<stop  offset="0.2503" style="stop-color:#FFC82D"/>
		<stop  offset="0.4441" style="stop-color:#F7C82C"/>
		<stop  offset="0.4653" style="stop-color:#D7C729"/>
		<stop  offset="0.5" style="stop-color:#9CC624"/>
		<stop  offset="0.74" style="stop-color:#9CC624"/>
		<stop  offset="0.77" style="stop-color:#2D87E1"/>
		<stop  offset="0.93" style="stop-color:#2D87E1"/>
		<stop  offset="1" style="stop-color:#03CB8F"/>
	</linearGradient>
	<path class="st0" d="M459,226.9v-3h1.5c1.9,0,3.8-0.2,5.6-0.6l1.5-0.3l0.6,2.9l-1.5,0.3c-2,0.4-4.1,0.7-6.2,0.7L459,226.9z
		 M452,226.9h-9v-3h9V226.9z M436,226.9h-9v-3h9V226.9z M420,226.9h-9v-3h9V226.9z M404,226.9h-9v-3h9V226.9z M388,226.9h-9v-3h9
		V226.9z M372,226.9h-9v-3h9V226.9z M356.1,226.9h-9v-3h9V226.9z M340.1,226.9h-9v-3h9V226.9z M324.1,226.9h-9v-3h9V226.9z
		 M308.1,226.9h-9v-3h9V226.9z M292.1,226.9h-9v-3h9V226.9z M276,226.7l-1.5-0.1c-2.2-0.2-4.2-0.5-6.1-0.9l-1.5-0.3l0.6-2.9l1.5,0.3
		c1.8,0.4,3.7,0.6,5.8,0.8l1.5,0.1L276,226.7z M932.5,225.9h-9v-3h9V225.9z M916.5,225.9h-9v-3h9V225.9z M900.5,225.9h-9v-3h9V225.9
		z M884.5,225.9h-9v-3h9V225.9z M868.5,225.9h-9v-3h9V225.9z M852.5,225.9h-9v-3h9V225.9z M836.5,225.9h-9v-3h9V225.9z M820.5,225.9
		h-9v-3h9V225.9z M804.5,225.9h-4.2c-1.1,0-2.2,0-3.3,0h-1.5l0.1-3h1.5c1.1,0,2.2,0,3.3,0h4.2L804.5,225.9L804.5,225.9z
		 M939.7,225.7l-0.4-3l1.5-0.2c2-0.2,3.9-0.6,5.7-1.1l1.4-0.4l0.8,2.9l-1.4,0.4c-1.9,0.5-4,0.9-6.1,1.2L939.7,225.7z M788.3,225.3
		l-1.5-0.2c-2.2-0.3-4.2-0.8-6.1-1.3l-1.4-0.4l0.9-2.9l1.4,0.4c1.7,0.5,3.6,0.9,5.6,1.2l1.5,0.2L788.3,225.3z M259.9,223l-1.3-0.7
		c-2-1.1-3.7-2.4-5.1-3.9l-1-1.1l2.2-2.1l1,1.1c1.2,1.3,2.7,2.4,4.4,3.3l1.3,0.7L259.9,223z M475.2,222.9l-1.7-2.5l1.2-0.8
		c1.5-1,3-2.3,4.3-3.7l1-1.1l2.2,2l-1,1.1c-1.4,1.6-3.1,2.9-4.8,4.1L475.2,222.9z M955.5,221.1l-1.6-2.5l1.3-0.8
		c1.6-1.1,3.1-2.3,4.3-3.6l1-1.1l2.2,2l-1,1.1c-1.4,1.5-3,2.9-4.9,4.1L955.5,221.1z M772.6,219.7l-1.1-1c-1.6-1.5-2.9-3.2-3.9-5.1
		l-0.7-1.3l2.7-1.4l0.7,1.3c0.8,1.6,1.9,3.1,3.3,4.3l1.1,1L772.6,219.7z M486.3,210.6l-2.8-1.2l0.6-1.4c0.8-1.8,1.3-3.6,1.6-5.4
		l0.3-1.5l3,0.5l-0.3,1.5c-0.4,2-1,4-1.8,6L486.3,210.6z M248.9,210.5l-0.3-1.5c-0.3-1.6-0.5-3.4-0.5-5.3v-2.5h3v2.5
		c0,1.7,0.2,3.2,0.5,4.7l0.3,1.5L248.9,210.5z M966.4,208.4l-2.9-0.9l0.4-1.4c0.5-1.7,0.9-3.6,1-5.5l0.1-1.5l3,0.2l-0.1,1.5
		c-0.2,2.2-0.5,4.3-1.1,6.2L966.4,208.4z M765.1,204.8l-0.1-1.5c0-0.5,0-1,0-1.5v-6h3v6c0,0.5,0,0.9,0,1.4l0.1,1.5L765.1,204.8z
		 M489,194.4h-3v-9h3V194.4z M251,194.2h-3v-9h3V194.2z M968,192.2h-3v-9h3V192.2z M768,188.7h-3v-9h3V188.7z M489,178.4h-3v-9h3
		V178.4z M251,178.2h-3v-9h3V178.2z M968,176.2h-3v-9h3V176.2z M768,172.7h-3v-9h3V172.7z M489,162.4h-3v-9h3V162.4z M251,162.2h-3
		v-9h3V162.2z M968,160.2h-3v-9h3V160.2z M768,156.7h-3v-9h3V156.7z M489,146.4h-3v-9h3V146.4z M251,146.2h-3v-9h3V146.2z
		 M968,144.2h-3v-9h3V144.2z M768,140.8h-3v-9h3V140.8z M489,130.4h-3v-9h3V130.4z M251,130.2h-3v-9h3V130.2z M968,128.3h-3v-9h3
		V128.3z M768,124.8h-3v-9h3V124.8z M489,114.4h-3v-9h3V114.4z M251,114.2h-3v-9h3V114.2z M968,112.3h-3v-9h3V112.3z M768,108.8h-3
		v-9h3V108.8z M489,98.4h-3v-9h3V98.4z M251,98.2h-3v-9h3V98.2z M968,96.3h-3v-9h3V96.3z M768,92.8h-3v-9h3V92.8z M489,82.4h-3v-9h3
		V82.4z M251,82.2h-3v-5.9c0-0.5,0-1-0.1-1.5l-0.1-1.5l3-0.2l0.1,1.5c0,0.6,0.1,1.1,0.1,1.7V82.2z M968,80.3h-3v-9h3V80.3z
		 M768,76.8h-3v-9h3V76.8z M246,67.3l-0.8-1.3c-0.9-1.6-2.1-3-3.5-4.3l-1.1-1l2-2.2l1.1,1c1.6,1.5,2.9,3.1,4,4.9l0.8,1.3L246,67.3z
		 M489,66.4h-3v-9h3V66.4z M968,64.3h-3v-9h3V64.3z M768,60.8h-3v-9h3V60.8z M235.2,57.5l-1.4-0.5c-1.7-0.6-3.6-1.1-5.5-1.5
		l-1.5-0.3l0.5-3l1.5,0.3c2.1,0.4,4.1,0.9,6,1.6l1.4,0.5L235.2,57.5z M220.1,54.9h-9v-3h9V54.9z M204.1,54.9h-9v-3h9V54.9z
		 M188.2,54.9h-9v-3h9V54.9z M172.2,54.9h-9v-3h9V54.9z M156.3,54.9h-9v-3h9V54.9z M140.3,54.9h-9v-3h9V54.9z M124.4,54.9h-9v-3h9
		V54.9z M108.4,54.9h-9v-3h9V54.9z M92.4,54.9h-9v-3h9V54.9z M76.5,54.9h-9v-3h9V54.9z M60.5,54.9h-9v-3h9V54.9z M44.6,54.9h-9v-3h9
		V54.9z M28.6,54.9h-9v-3h9V54.9z M12.7,54.9h-9v-3h9V54.9z M489,50.4h-3v-9h3V50.4z M768,44.8h-3v-9h3V44.8z M489,34.4h-3v-9h3
		V34.4z M764.9,29l-0.2-1.5c-0.2-2-0.6-3.9-1.1-5.6l-0.4-1.4l2.9-0.8l0.4,1.4c0.5,1.9,1,3.9,1.2,6.1l0.2,1.5L764.9,29z M489.9,19
		l-2.8-1.1l0.6-1.4c0.8-2.1,2-3.9,3.5-5.5l1-1.1l2.2,2.1l-1,1.1c-1.2,1.3-2.2,2.8-2.9,4.5L489.9,19z M760.3,14.9l-1-1.1
		c-1.2-1.3-2.7-2.5-4.3-3.5l-1.3-0.8l1.5-2.6l1.3,0.8c1.9,1.1,3.6,2.5,5,4l1,1.1L760.3,14.9z M499.8,8.9l-1-2.8l1.4-0.5
		c1.8-0.6,3.8-1.1,6-1.5l1.5-0.3l0.5,3L506.8,7c-2,0.4-3.9,0.8-5.6,1.4L499.8,8.9z M747.6,7.5l-1.5-0.3c-1.8-0.4-3.6-0.6-5.8-0.8
		l-1.5-0.1l0.3-3l1.5,0.1c2.2,0.2,4.2,0.5,6.1,0.9l1.5,0.3L747.6,7.5z M515,6l-0.1-3l1.5-0.1c1.9-0.1,3.8-0.1,5.9-0.1h1.6v3h-1.6
		c-2.1,0-4,0-5.8,0.1L515,6z M732,5.9h-9v-3h9.1L732,5.9z M716,5.9h-9v-3h9V5.9z M699.9,5.9h-9v-3h9V5.9z M683.9,5.9h-9v-3h9V5.9z
		 M667.9,5.9h-9v-3h9V5.9z M651.9,5.9h-9v-3h9V5.9z M635.9,5.9h-9v-3h9V5.9z M620,5.9h-9v-3h9V5.9z M604,5.9h-9v-3h9V5.9z M588,5.9
		h-9v-3h9V5.9z M572,5.9h-9v-3h9V5.9z M556,5.9h-9v-3h9V5.9z M539.9,5.9h-9v-3h9V5.9z"/>
</g>
</svg>
