<svg version="1.0" xmlns="http://www.w3.org/2000/svg" width="600.000000pt" height="573.000000pt" viewBox="0 0 600.000000 573.000000" preserveAspectRatio="xMidYMid meet">
    <g transform="translate(0.000000,573.000000) scale(0.100000,-0.100000)">
        <path d="M685 5723 c-126 -18 -294 -92 -393 -174 -121 -100 -225 -262 -269 -419 -17 -62 -18 -169 -18 -2230 0 -2079 1 -2168 19 -2235 23 -87 81 -214 133 -291 22 -33 76 -93 120 -135 114 -108 230 -173 388 -215 67 -18 154 -19 2335
-19 2181 0 2268 1 2335 19 158 42 274 107 388 215 146 140 236 309 267 501 6 42 10 607 10 1621 0 1348 -2 1568 -15 1644 -49 278 -230 514 -486 634 -151 71 -170 74 -500 78 l-296 5 -6 136 c-7 158 -30 260 -82 371 -94 197 -267 360
-468 441 -156 62 -91 60 -1841 59 -875 -1 -1604 -4 -1621 -6z m3223 -598 c74 -22 131 -70 167 -140 27 -54 30 -67 30 -159 l0 -101 -1680 0 -1680 0 -45 25 c-123 69 -146 232 -46 329 66 64 -37 60 1657 61 1357 0 1552 -2 1597 -15z
m-998 -985 l2285 -5 57 -28 c61 -30 95 -64 131 -131 l22 -41 0 -1570 0 -1570 -22 -41 c-36 -67 -70 -101 -131 -131 l-57 -28 -2195 0 -2195 0 -45 21 c-68 31 -106 68 -139 136 l-31 61 0 1675 c0 1591 1 1674 18 1666 9 -5 1045 -11 2302
-14z"/>
        <path d="M1154 3270 c-12 -4 -31 -21 -43 -36 -21 -27 -21 -27 -21 -718 0 -761 0 -763 62 -879 65 -121 174 -213 306 -259 l67 -23 1017 0 1018 0 27 28 28 27 0 708 c0 778 2 749 -63 875 -72 139 -229 253 -382 277 -80 12 -1985 13 -2016
0z"/>
        <path d="M4534 3254 c-21 -15 -209 -151 -416 -302 l-378 -276 0 -362 0 -363 388 -282 c213 -155 402 -291 420 -302 44 -26 78 -12 87 35 3 18 4 442 3 941 -3 886 -3 909 -22 923 -27 19 -37 18 -82 -12z"/>
    </g>
</svg>
